<svg width="294" height="294" viewBox="0 0 294 294" fill="none" xmlns="http://www.w3.org/2000/svg">
<rect width="294" height="294" rx="55" fill="white"/>
<path d="M145.016 199.152C138.445 199.152 132.472 197.915 127.096 195.44C121.805 192.965 117.667 189.552 114.68 185.2C111.693 180.848 110.2 175.941 110.2 170.48C110.2 166.64 111.821 163.995 115.064 162.544C118.392 161.008 123.085 160.24 129.144 160.24C128.888 161.605 128.76 163.653 128.76 166.384C128.76 171.76 130.125 175.856 132.856 178.672C135.587 181.403 139.64 182.768 145.016 182.768C150.307 182.768 154.317 181.232 157.048 178.16C159.864 175.088 161.272 170.651 161.272 164.848V124.656H149.112C144.845 124.656 141.645 123.333 139.512 120.688C137.464 117.957 136.44 113.861 136.44 108.4H170.872C173.432 108.4 175.608 109.253 177.4 110.96C179.192 112.581 180.088 114.587 180.088 116.976V164.848C180.088 171.419 178.552 177.307 175.48 182.512C172.493 187.717 168.312 191.813 162.936 194.8C157.645 197.701 151.672 199.152 145.016 199.152Z" fill="black"/>
</svg>
